<svg width="120" height="118" viewBox="0 0 120 118" fill="none" xmlns="http://www.w3.org/2000/svg">
<path d="M102.433 60.6074C102.433 84.4235 83.4322 103.729 59.9911 103.729C36.5501 103.729 17.5488 84.4235 17.5488 60.6074" fill="#945A00"/>
<path d="M102.433 60.6074C102.433 84.4235 83.4322 103.729 59.9911 103.729C36.5501 103.729 17.5488 84.4235 17.5488 60.6074" stroke="black" stroke-miterlimit="10"/>
<path d="M17.5576 60.6073C17.5576 36.7911 36.5589 17.4858 59.9999 17.4858C83.441 17.4858 102.442 36.7911 102.442 60.6073" fill="#006B5A"/>
<path d="M17.5576 60.6073C17.5576 36.7911 36.5589 17.4858 59.9999 17.4858C83.441 17.4858 102.442 36.7911 102.442 60.6073" stroke="black" stroke-miterlimit="10"/>
<path d="M10.6334 76.8092C10.7173 76.9541 10.7592 76.9627 10.9187 76.903L17.0622 74.4728C17.2301 74.4045 17.2469 74.3704 17.2133 74.2084L17.0203 73.4751L17.6245 73.2363L18.9002 76.5619C19.9745 79.3588 18.9506 81.1409 16.5838 82.0789C14.1499 83.0425 12.0014 82.3944 10.8935 79.5123L9.69336 76.3743L10.2809 76.1441L10.625 76.8177L10.6334 76.8092ZM16.0383 81.0812C18.4806 80.1177 18.8079 78.7022 18.061 76.7495L17.5658 75.4619L11.2292 77.9689L11.6992 79.1882C12.5133 81.3115 14.0828 81.8572 16.0467 81.0812H16.0383Z" fill="white"/>
<path d="M16.752 89.6423C16.8695 89.7617 16.9115 89.7617 17.0542 89.6594L22.392 85.7284C22.5347 85.6261 22.5515 85.5834 22.4675 85.43L22.0982 84.7734L22.6186 84.3896L26.0848 89.2416L24.5154 90.4012L24.0873 89.7191L24.7252 89.0454C24.8091 88.9602 24.8091 88.9005 24.7252 88.7896L23.1222 86.547L20.7218 88.3121L22.5682 90.8958L21.88 91.3989L20.0336 88.8152L17.5745 90.6229L19.3286 93.0787C19.4042 93.1811 19.4377 93.2066 19.5468 93.1555L20.4868 92.7035L20.9484 93.3516L19.337 94.5369L15.7197 89.4718L16.2317 89.0966L16.7353 89.6594L16.752 89.6423Z" fill="white"/>
<path d="M25.8498 99.9088C25.7323 100.054 25.7239 100.088 25.8498 100.216L26.4037 100.796L26.0009 101.299L23.7852 99.474L24.188 98.9709L24.8175 99.3802C24.9601 99.4654 25.0021 99.4569 25.1112 99.3119L29.274 94.1019C29.3831 93.9655 29.3915 93.9228 29.274 93.7949L28.7537 93.2577L29.1565 92.7461L30.9442 94.2213L29.744 102.475L33.5879 97.6577C33.697 97.5213 33.7054 97.4786 33.5879 97.3507L33.0676 96.8135L33.4704 96.3104L35.6777 98.1267L35.2749 98.6298L34.6035 98.2034C34.4524 98.1096 34.4272 98.1182 34.3181 98.2631L29.5594 104.232L28.5858 103.431L29.7272 95.074L25.8582 99.9259L25.8498 99.9088Z" fill="white"/>
<path d="M38.5979 108.555C38.7573 108.615 38.7909 108.581 38.8665 108.41L41.5605 102.169L39.8904 101.427C39.7729 101.376 39.7309 101.367 39.6638 101.469L39.0847 102.348L38.3629 102.024L39.1602 100.173L45.6142 103.055L44.8169 104.906L44.0952 104.582L44.3302 103.55C44.3553 103.431 44.3302 103.405 44.2127 103.354L42.5425 102.612L39.8484 108.854C39.7813 109.007 39.7729 109.059 39.9323 109.135L41.0821 109.749L40.822 110.355L37.1963 108.735L37.4565 108.129L38.5979 108.547V108.555Z" fill="white"/>
<path d="M52.8741 112.802L52.5803 110.832L49.3575 110.235L48.4091 111.975L49.3239 112.256L49.2064 112.887L46.5459 112.392L46.655 111.77L47.1754 111.736C47.3684 111.727 47.4355 111.702 47.5027 111.565L51.4053 104.505L52.7482 104.752L53.9819 112.776C53.9987 112.921 54.091 112.964 54.2253 113.023L54.7205 113.254L54.603 113.885L51.783 113.365L51.9005 112.734L52.8657 112.802H52.8741ZM52.4796 109.928L51.8837 105.545L49.7771 109.425L52.4796 109.928Z" fill="white"/>
<path d="M61.2665 113.322C61.426 113.288 61.4512 113.254 61.4428 113.075L61.0148 106.39C61.0064 106.21 60.9812 106.176 60.8133 106.168L60.0664 106.134L60.0244 105.477L63.1885 105.272L63.2305 105.929L62.2653 106.091C62.089 106.117 62.0807 106.159 62.089 106.33L62.5171 113.134L65.4965 112.938C65.6224 112.938 65.656 112.913 65.6728 112.793L65.7903 111.71L66.5792 111.659L66.7051 113.706L60.5616 114.107L60.5196 113.467L61.2498 113.339L61.2665 113.322Z" fill="white"/>
<path d="M83.0132 108.837C80.4198 110.082 78.607 108.913 77.5075 106.534C76.4248 104.189 76.8948 101.879 79.4462 100.659C80.3778 100.207 81.3682 100.02 82.0648 100.122L82.8621 101.853L82.1235 102.151L81.4689 101.213C81.4018 101.128 81.3514 101.068 81.2255 101.094C80.7975 101.145 80.2771 101.256 79.7736 101.495C78.1034 102.296 77.5411 103.934 78.523 106.048C79.4966 108.154 81.0409 108.785 82.7026 107.992C83.181 107.762 83.7601 107.421 84.0874 107.054C84.1546 106.978 84.1882 106.927 84.1462 106.79L83.8692 105.733L84.549 105.409L85.3044 107.037C84.9099 107.703 83.9951 108.359 83.0216 108.828L83.0132 108.837Z" fill="white"/>
<path d="M94.9981 99.5766L93.3195 98.5448L90.8017 100.685L91.5151 102.536L92.3124 101.998L92.7236 102.493L90.6506 104.258L90.2478 103.772L90.5499 103.346C90.6674 103.184 90.6842 103.124 90.6338 102.979L87.7803 95.4239L88.8294 94.5371L95.6947 98.6983C95.8206 98.7751 95.9045 98.7324 96.0388 98.6727L96.5256 98.4255L96.9368 98.92L94.7379 100.787L94.3266 100.293L94.9981 99.5851V99.5766ZM92.5726 98.0417L88.8713 95.7053L90.466 99.8324L92.5726 98.0417Z" fill="white"/>
<path d="M103.331 89.7365L100.788 89.1055C100.394 89.0117 100.192 89.0884 99.9238 89.4721L99.1768 90.538L101.351 92.1155C101.502 92.2264 101.527 92.2264 101.653 92.0984L102.181 91.5101L102.702 91.8853L100.981 94.3325L100.461 93.9574L100.822 93.3008C100.897 93.1473 100.881 93.1132 100.738 93.0023L95.3749 89.114C95.2322 89.0116 95.1902 89.0117 95.0727 89.131L94.5776 89.6938L94.0488 89.3101L96.1386 86.3342C97.364 84.5861 98.6397 84.8334 99.5545 85.4985C100.578 86.2404 100.746 87.2124 100.469 88.2016C100.822 88.0055 101.074 88.0396 101.552 88.1675L103.692 88.7217C103.885 88.7729 104.003 88.7132 104.12 88.5768L104.624 88.0481L105.127 88.4148L103.373 90.9132L102.853 90.538L103.331 89.7279V89.7365ZM98.9166 86.4621C97.9431 85.7543 97.2633 86.2318 96.4324 87.4171L95.9036 88.176L98.4886 90.052L99.1181 89.1566C99.7643 88.2357 100.041 87.2721 98.925 86.4706L98.9166 86.4621Z" fill="white"/>
<path d="M107.494 82.0702C107.536 81.9081 107.511 81.874 107.343 81.8058L101.208 79.35C101.04 79.2818 101.007 79.2903 100.923 79.4438L100.57 80.1089L99.9658 79.8702L102.131 74.2935L103.936 75.0183L103.6 75.7601L102.693 75.581C102.576 75.5555 102.526 75.5896 102.475 75.7089L101.477 78.2841L104.229 79.3926L105.379 76.4252L106.168 76.7407L105.018 79.7081L107.838 80.8423L108.938 78.0198C108.988 77.9004 108.988 77.8578 108.887 77.7981L108.006 77.2353L108.291 76.4934L110.138 77.2353L107.88 83.0593L107.293 82.8205L107.486 82.0872L107.494 82.0702Z" fill="white"/>
<path d="M4.16234 52.6943C4.01127 52.9075 3.80984 53.3509 3.71752 54.1951C3.52448 55.8493 4.14555 56.7447 5.27018 56.8811C6.58785 57.0346 7.09981 55.9261 7.64534 54.6811C8.32516 53.1292 9.05533 51.3726 11.4305 51.6626C13.8896 51.961 14.5442 54.0246 14.2756 56.3269C14.1078 57.7935 13.579 59.1664 13.2769 59.6354L10.6751 59.3199L10.801 58.2455L12.2278 58.109C12.4376 58.0834 12.5048 58.0408 12.6139 57.8276C12.723 57.5974 12.9832 56.992 13.0923 56.054C13.2853 54.4083 12.7817 53.3594 11.3969 53.1889C10.0037 53.0184 9.45818 54.0842 8.95462 55.2951C8.29159 56.8641 7.66213 58.6974 5.27018 58.4075C3.00413 58.1346 2.24878 56.216 2.50896 53.9819C2.66842 52.6261 3.13842 51.5773 3.41538 51.0571L6.10946 51.3812L5.88286 52.4811L4.50644 52.5579C4.27984 52.5579 4.21269 52.6176 4.15394 52.6943H4.16234Z" fill="white"/>
<path d="M19.84 36.0668L17.213 35.6234L15.1064 39.6055L16.9277 41.5753L17.6662 40.4923L18.4216 40.9102L16.6843 44.1931L15.9373 43.7838L16.1052 43.0846C16.1723 42.8288 16.1639 42.735 16.0296 42.5815L8.69434 34.5234L9.56719 32.8691L20.268 34.6001C20.4694 34.6342 20.5533 34.5404 20.6876 34.387L21.1828 33.8327L21.9381 34.2505L20.0917 37.7296L19.3364 37.3117L19.8316 36.0753L19.84 36.0668ZM16.0296 35.3761L10.2134 34.3273L14.2588 38.7102L16.0296 35.3761Z" fill="white"/>
<path d="M30.1716 25.5359L28.7364 26.67L20.3856 20.1042C20.2177 19.9678 20.117 19.9678 19.9492 20.0616L19.1099 20.522L18.707 19.729L21.8711 17.2391L22.3999 17.9298L21.3759 18.9445L28.5434 24.8026L25.5807 17.3158L26.8816 16.2926L33.3524 21.1871L29.5757 12.498L28.3335 13.274L27.9307 12.481L30.885 10.1616L31.4137 10.8523L30.843 11.4833C30.6835 11.6453 30.6667 11.7221 30.7591 11.9608L34.9806 21.7755L33.4531 22.9778L27.3348 18.2794L30.1716 25.553V25.5359Z" fill="white"/>
<path d="M48.9458 14.7831C49.164 14.7148 49.1808 14.6466 49.1304 14.4079L47.1749 5.3777L44.7578 5.9149C44.5899 5.94901 44.5396 5.98312 44.548 6.14513L44.5983 7.57768L43.5576 7.80791L42.9785 5.13041L52.3197 3.0498L52.8988 5.72731L51.8581 5.95754L51.3125 4.63584C51.2454 4.48235 51.195 4.48235 51.0272 4.51646L48.6101 5.05367L50.5656 14.0838C50.6159 14.3055 50.6411 14.3652 50.8761 14.3311L52.6134 14.0753L52.7981 14.9451L47.5526 16.1133L47.3679 15.2435L48.9458 14.7745V14.7831Z" fill="white"/>
<path d="M64.0536 8.39646C64.6495 5.01974 66.9827 2.82828 70.5664 3.48486C74.125 4.14145 75.2748 6.96391 74.7124 10.1701C74.041 13.9305 71.8253 16.0452 68.2332 15.3801C64.5908 14.715 63.4409 11.9181 64.062 8.39646H64.0536ZM73.185 10.0507C73.7305 6.98949 72.5891 5.12206 70.3146 4.70423C68.0066 4.27788 66.0847 5.6081 65.5475 8.66932C64.9768 11.8755 66.219 13.7429 68.527 14.1693C70.8014 14.5871 72.6143 13.3336 73.1934 10.0507H73.185Z" fill="white"/>
<path d="M85.1862 14.7488C87.1081 11.9179 90.1211 10.9031 93.1173 13.0008C96.0968 15.0899 95.9961 18.1511 94.1748 20.8286C92.0347 23.9751 89.156 24.9643 86.1513 22.8581C83.1048 20.7263 83.1887 17.6907 85.1862 14.7403V14.7488ZM92.8404 20.0868C94.5777 17.5287 94.3007 15.3457 92.3956 14.007C90.4652 12.6512 88.174 13.0605 86.4367 15.6186C84.6155 18.2961 84.9847 20.5217 86.9151 21.8775C88.8202 23.2077 90.9772 22.8325 92.8404 20.0868Z" fill="white"/>
<path d="M99.3869 34.7878C99.5212 34.9668 99.5884 34.9668 99.7898 34.8304L107.461 29.8506L106.135 27.7359C106.042 27.5824 106 27.5568 105.849 27.6165L104.54 28.1537L103.969 27.2413L106.244 25.7661L111.389 33.9521L109.114 35.4273L108.543 34.5149L109.576 33.5343C109.693 33.4234 109.676 33.3723 109.584 33.2188L108.258 31.1041L100.587 36.0839C100.402 36.2033 100.352 36.2544 100.47 36.4676L101.309 38.0366L100.57 38.5141L97.6748 33.918L98.4134 33.4405L99.3953 34.7878H99.3869Z" fill="white"/>
<path d="M107.117 56.3528C107.184 56.5745 107.234 56.6001 107.469 56.5574L111.498 55.9008L110.633 50.3923L106.613 51.0404C106.361 51.083 106.336 51.1001 106.336 51.3474L106.378 52.4388L105.53 52.5753L104.893 48.5079L105.74 48.3714L106.009 49.3606C106.076 49.5823 106.126 49.6079 106.361 49.5652L115.216 48.1327C115.451 48.0986 115.493 48.0559 115.493 47.8257L115.442 46.8024L116.29 46.666L116.928 50.7334L116.08 50.8699L115.786 49.821C115.719 49.5823 115.686 49.5737 115.451 49.6164L111.766 50.2133L112.631 55.7218L116.315 55.1249C116.55 55.0908 116.592 55.0481 116.592 54.8179L116.542 53.7947L117.389 53.6582L118.027 57.7256L117.18 57.8621L116.886 56.8132C116.819 56.5745 116.785 56.566 116.542 56.6086L107.704 58.0411C107.452 58.0838 107.427 58.1008 107.427 58.3481L107.469 59.4396L106.621 59.576L105.984 55.5086L106.831 55.3722L107.1 56.3613L107.117 56.3528Z" fill="white"/>
<path d="M44.3391 50.6736C43.0046 48.6954 40.7302 47.5954 38.3802 47.7915C35.661 48.107 34.956 49.3775 32.5221 49.6248C30.0965 49.3775 29.3832 48.107 26.6639 47.7915C24.3139 47.5954 22.0395 48.6954 20.705 50.6736C19.144 53.0953 19.4881 56.7023 21.7289 59.4736C22.2157 60.0619 22.5011 60.7867 22.543 61.5542C22.6773 65.0673 23.332 74.9587 26.496 75.6239C28.93 76.144 27.6459 64.317 32.5221 64.4704C37.3983 64.317 36.1142 76.144 38.5481 75.6239C41.7038 74.9502 42.3668 65.0673 42.5011 61.5542C42.543 60.7867 42.8284 60.0534 43.3152 59.4736C45.5561 56.7108 45.9002 53.0953 44.3391 50.6736Z" fill="white"/>
<path d="M44.3387 50.6734C43.6337 49.0703 37.2888 46.2564 38.3799 47.7913C40.1088 50.23 40.755 54.8176 40.2179 59.8059C39.7563 64.095 37.1209 73.5175 37.1209 73.5175C36.9111 74.7965 37.6665 75.9306 38.1533 75.8539C39.4961 75.6407 42.635 71.4795 42.4923 61.5454C42.5175 60.778 42.8029 60.0362 43.3064 59.4648C45.2955 56.9835 45.69 53.5556 44.3303 50.6649L44.3387 50.6734Z" fill="#D0CFCE"/>
<path d="M44.3391 50.6731C43.0046 48.6949 40.7302 47.5949 38.3802 47.791C35.661 48.1065 34.956 49.377 32.5221 49.6243C30.0965 49.377 29.3832 48.1065 26.6639 47.791C24.3139 47.5949 22.0395 48.6949 20.705 50.6731C19.144 53.0948 19.4881 56.7018 21.7289 59.4731C22.2157 60.0615 22.5011 60.7863 22.543 61.5537C22.6773 65.0668 23.332 74.9583 26.496 75.6234C28.93 76.1435 27.6459 64.3165 32.5221 64.47C37.3983 64.3165 36.1142 76.1435 38.5481 75.6234C41.7038 74.9497 42.3668 65.0668 42.5011 61.5537C42.543 60.7863 42.8284 60.0529 43.3152 59.4731C45.5561 56.7103 45.9002 53.0948 44.3391 50.6731Z" stroke="black" stroke-miterlimit="10"/>
<path d="M71.8928 50.5711C70.5584 48.5928 68.2839 47.4928 65.9339 47.6889C63.2147 48.0044 62.5097 49.275 60.0758 49.5223C57.6503 49.275 56.9369 48.0044 54.2176 47.6889C51.8676 47.4928 49.5932 48.5928 48.2587 50.5711C46.6977 52.9928 47.0418 56.5997 49.2827 59.371C49.7694 59.9594 50.0548 60.6842 50.0968 61.4516C50.231 64.9648 50.8857 74.8562 54.0498 75.5213C56.4837 76.0415 55.1996 64.2144 60.0758 64.3679C64.952 64.2144 63.6679 76.0415 66.1018 75.5213C69.2575 74.8477 69.9205 64.9648 70.0548 61.4516C70.0968 60.6842 70.3821 59.9509 70.8689 59.371C73.1098 56.6083 73.4539 52.9928 71.8928 50.5711Z" fill="white"/>
<path d="M71.8925 50.5709C71.1875 48.9678 64.8425 46.1539 65.9336 47.6887C67.6625 50.1275 68.3087 54.715 67.7716 59.7034C67.31 63.9925 64.6747 73.4149 64.6747 73.4149C64.4648 74.694 65.2202 75.8281 65.707 75.7513C67.0498 75.5382 70.1887 71.3769 70.046 61.4429C70.0712 60.6755 70.3566 59.9336 70.8601 59.3623C72.8492 56.8809 73.2437 53.453 71.8841 50.5624L71.8925 50.5709Z" fill="#D0CFCE"/>
<path d="M71.8928 50.5711C70.5584 48.5928 68.2839 47.4928 65.9339 47.6889C63.2147 48.0044 62.5097 49.275 60.0758 49.5223C57.6503 49.275 56.9369 48.0044 54.2176 47.6889C51.8676 47.4928 49.5932 48.5928 48.2587 50.5711C46.6977 52.9928 47.0418 56.5997 49.2827 59.371C49.7694 59.9594 50.0548 60.6842 50.0968 61.4516C50.231 64.9648 50.8857 74.8562 54.0498 75.5213C56.4837 76.0415 55.1996 64.2144 60.0758 64.3679C64.952 64.2144 63.6679 76.0415 66.1018 75.5213C69.2575 74.8477 69.9205 64.9648 70.0548 61.4516C70.0968 60.6842 70.3821 59.9509 70.8689 59.371C73.1098 56.6083 73.4539 52.9928 71.8928 50.5711Z" stroke="black" stroke-miterlimit="10"/>
<path d="M99.4543 51.0911C98.1199 49.1128 95.8454 48.0128 93.4955 48.209C90.7762 48.5245 90.0712 49.795 87.6373 50.0423C85.2118 49.795 84.4984 48.5245 81.7791 48.209C79.4292 48.0128 77.1547 49.1128 75.8203 51.0911C74.2592 53.5128 74.6033 57.1198 76.8442 59.8911C77.331 60.4794 77.6163 61.2042 77.6583 61.9717C77.7926 65.4848 78.4472 75.3762 81.6113 76.0413C84.0452 76.5615 82.7611 64.7344 87.6373 64.8879C92.5135 64.7344 91.2294 76.5615 93.6633 76.0413C96.819 75.3677 97.482 65.4848 97.6163 61.9717C97.6583 61.2042 97.9436 60.4709 98.4304 59.8911C100.671 57.1283 101.015 53.5128 99.4543 51.0911Z" fill="white"/>
<path d="M99.454 51.0909C98.749 49.4878 92.404 46.6739 93.4951 48.2088C95.224 50.6475 95.8703 55.2351 95.3331 60.2234C94.8715 64.5125 92.2362 73.9349 92.2362 73.9349C92.0264 75.214 92.7817 76.3481 93.2685 76.2714C94.6113 76.0582 97.7502 71.897 97.6076 61.9629C97.6327 61.1955 97.9181 60.4536 98.4217 59.8823C100.411 57.4009 100.805 53.9731 99.4456 51.0824L99.454 51.0909Z" fill="#D0CFCE"/>
<path d="M99.4543 51.0911C98.1199 49.1128 95.8454 48.0128 93.4955 48.209C90.7762 48.5245 90.0712 49.795 87.6373 50.0423C85.2118 49.795 84.4984 48.5245 81.7791 48.209C79.4292 48.0128 77.1547 49.1128 75.8203 51.0911C74.2592 53.5128 74.6033 57.1198 76.8442 59.8911C77.331 60.4794 77.6163 61.2042 77.6583 61.9717C77.7926 65.4848 78.4472 75.3762 81.6113 76.0413C84.0452 76.5615 82.7611 64.7344 87.6373 64.8879C92.5135 64.7344 91.2294 76.5615 93.6633 76.0413C96.819 75.3677 97.482 65.4848 97.6163 61.9717C97.6583 61.2042 97.9436 60.4709 98.4304 59.8911C100.671 57.1283 101.015 53.5128 99.4543 51.0911Z" stroke="black" stroke-miterlimit="10"/>
</svg>
