<svg width="120" height="117" viewBox="0 0 120 117" fill="none" xmlns="http://www.w3.org/2000/svg">
<path d="M102.434 60.1074C102.434 83.9235 83.4327 103.229 59.9916 103.229C36.5506 103.229 17.5493 83.9235 17.5493 60.1074" fill="#945A00"/>
<path d="M102.434 60.1074C102.434 83.9235 83.4327 103.229 59.9916 103.229C36.5506 103.229 17.5493 83.9235 17.5493 60.1074" stroke="black" stroke-miterlimit="10"/>
<path d="M17.5578 60.1074C17.5578 36.2912 36.5591 16.9859 60.0001 16.9859C83.4411 16.9859 102.442 36.2912 102.442 60.1074" fill="#006B5A"/>
<path d="M17.5578 60.1074C17.5578 36.2912 36.5591 16.9859 60.0001 16.9859C83.4411 16.9859 102.442 36.2912 102.442 60.1074" stroke="black" stroke-miterlimit="10"/>
<path d="M10.6337 76.3088C10.7176 76.4538 10.7595 76.4623 10.919 76.4026L17.0625 73.9724C17.2304 73.9042 17.2472 73.8701 17.2136 73.708L17.0206 72.9747L17.6248 72.736L18.9005 76.0615C19.9748 78.8584 18.9509 80.6406 16.5841 81.5785C14.1502 82.5421 12.0017 81.894 10.8938 79.0119L9.69366 75.8739L10.2812 75.6437L10.6253 76.3173L10.6337 76.3088ZM16.0386 80.5809C18.4809 79.6173 18.8082 78.2018 18.0613 76.2491L17.5661 74.9615L11.2295 77.4685L11.6995 78.6879C12.5136 80.8111 14.0831 81.3568 16.047 80.5809H16.0386Z" fill="black"/>
<path d="M16.752 89.142C16.8695 89.2614 16.9114 89.2614 17.0541 89.1591L22.3919 85.2281C22.5346 85.1258 22.5514 85.0832 22.4675 84.9297L22.0982 84.2731L22.6185 83.8894L26.0848 88.7413L24.5153 89.901L24.0873 89.2188L24.7251 88.5451C24.809 88.4599 24.809 88.4002 24.7251 88.2893L23.1221 86.0467L20.7218 87.8118L22.5682 90.3955L21.88 90.8986L20.0336 88.3149L17.5745 90.1227L19.3286 92.5785C19.4041 92.6808 19.4377 92.7064 19.5468 92.6552L20.4868 92.2033L20.9484 92.8513L19.337 94.0366L15.7197 88.9715L16.2316 88.5963L16.7352 89.1591L16.752 89.142Z" fill="black"/>
<path d="M25.8498 99.4086C25.7323 99.5536 25.7239 99.5877 25.8498 99.7156L26.4037 100.295L26.0009 100.799L23.7852 98.9738L24.188 98.4707L24.8175 98.88C24.9601 98.9652 25.0021 98.9567 25.1112 98.8117L29.274 93.6017C29.3831 93.4653 29.3915 93.4226 29.274 93.2947L28.7537 92.7575L29.1565 92.2459L30.9442 93.7211L29.744 101.975L33.5879 97.1575C33.697 97.0211 33.7054 96.9784 33.5879 96.8505L33.0676 96.3133L33.4704 95.8102L35.6777 97.6265L35.2749 98.1296L34.6035 97.7032C34.4524 97.6094 34.4272 97.618 34.3181 97.7629L29.5594 103.732L28.5858 102.93L29.7272 94.5738L25.8582 99.4257L25.8498 99.4086Z" fill="black"/>
<path d="M38.5984 108.055C38.7579 108.115 38.7915 108.081 38.867 107.91L41.5611 101.668L39.8909 100.926C39.7734 100.875 39.7315 100.867 39.6643 100.969L39.0852 101.847L38.3634 101.523L39.1607 99.673L45.6148 102.555L44.8175 104.406L44.0957 104.081L44.3307 103.05C44.3559 102.93 44.3307 102.905 44.2132 102.854L42.543 102.112L39.849 108.354C39.7818 108.507 39.7734 108.558 39.9329 108.635L41.0827 109.249L40.8225 109.854L37.1968 108.234L37.457 107.629L38.5984 108.047V108.055Z" fill="black"/>
<path d="M52.8745 112.302L52.5808 110.332L49.358 109.735L48.4096 111.474L49.3244 111.756L49.2069 112.387L46.5464 111.892L46.6555 111.27L47.1758 111.236C47.3689 111.227 47.436 111.202 47.5032 111.065L51.4058 104.005L52.7487 104.252L53.9824 112.276C53.9992 112.421 54.0915 112.464 54.2258 112.523L54.721 112.754L54.6035 113.385L51.7835 112.864L51.901 112.233L52.8662 112.302H52.8745ZM52.4801 109.428L51.8842 105.045L49.7776 108.925L52.4801 109.428Z" fill="black"/>
<path d="M61.2673 112.822C61.4268 112.788 61.452 112.754 61.4436 112.574L61.0156 105.889C61.0072 105.71 60.982 105.676 60.8141 105.668L60.0672 105.633L60.0252 104.977L63.1893 104.772L63.2313 105.429L62.2661 105.591C62.0898 105.616 62.0814 105.659 62.0898 105.83L62.5179 112.634L65.4973 112.438C65.6232 112.438 65.6568 112.412 65.6736 112.293L65.7911 111.21L66.58 111.159L66.7059 113.205L60.5624 113.606L60.5204 112.967L61.2506 112.839L61.2673 112.822Z" fill="black"/>
<path d="M83.013 108.336C80.4197 109.581 78.6068 108.413 77.5074 106.034C76.4247 103.689 76.8947 101.378 79.4461 100.159C80.3777 99.7071 81.3681 99.5195 82.0647 99.6218L82.862 101.353L82.1234 101.651L81.4688 100.713C81.4016 100.628 81.3513 100.568 81.2254 100.594C80.7973 100.645 80.277 100.756 79.7734 100.995C78.1033 101.796 77.5409 103.433 78.5229 105.548C79.4965 107.654 81.0407 108.285 82.7025 107.492C83.1809 107.262 83.76 106.921 84.0873 106.554C84.1545 106.478 84.188 106.426 84.1461 106.29L83.8691 105.233L84.5489 104.909L85.3043 106.537C84.9098 107.202 83.995 107.859 83.0214 108.328L83.013 108.336Z" fill="black"/>
<path d="M94.9979 99.0761L93.3193 98.0443L90.8015 100.185L91.5149 102.035L92.3122 101.498L92.7234 101.992L90.6504 103.757L90.2476 103.271L90.5497 102.845C90.6672 102.683 90.684 102.623 90.6336 102.478L87.7801 94.9234L88.8292 94.0366L95.6945 98.1978C95.8204 98.2746 95.9043 98.2319 96.0386 98.1722L96.5254 97.9249L96.9366 98.4195L94.7377 100.287L94.3265 99.7924L94.9979 99.0846V99.0761ZM92.5724 97.5412L88.8712 95.2048L90.4658 99.3319L92.5724 97.5412Z" fill="black"/>
<path d="M103.332 89.2359L100.789 88.6048C100.394 88.5111 100.193 88.5878 99.9244 88.9715L99.1775 90.0374L101.351 91.6149C101.502 91.7258 101.527 91.7258 101.653 91.5978L102.182 91.0095L102.702 91.3847L100.982 93.8319L100.462 93.4567L100.822 92.8002C100.898 92.6467 100.881 92.6126 100.739 92.5017L95.3756 88.6134C95.2329 88.511 95.1909 88.511 95.0734 88.6304L94.5782 89.1932L94.0495 88.8095L96.1393 85.8335C97.3647 84.0855 98.6404 84.3328 99.5552 84.9979C100.579 85.7397 100.747 86.7118 100.47 87.701C100.822 87.5049 101.074 87.539 101.553 87.6669L103.693 88.2211C103.886 88.2723 104.003 88.2126 104.121 88.0762L104.624 87.5475L105.128 87.9142L103.374 90.4126L102.854 90.0374L103.332 89.2273V89.2359ZM98.9173 85.9615C97.9438 85.2537 97.2639 85.7312 96.4331 86.9165L95.9043 87.6754L98.4893 89.5513L99.1187 88.656C99.765 87.7351 100.042 86.7715 98.9257 85.97L98.9173 85.9615Z" fill="black"/>
<path d="M107.495 81.57C107.537 81.408 107.512 81.3739 107.344 81.3057L101.209 78.8499C101.041 78.7817 101.007 78.7902 100.923 78.9437L100.571 79.6088L99.9664 79.37L102.132 73.7933L103.936 74.5181L103.601 75.26L102.694 75.0809C102.577 75.0553 102.526 75.0894 102.476 75.2088L101.477 77.784L104.23 78.8925L105.38 75.9251L106.169 76.2406L105.019 79.208L107.839 80.3421L108.938 77.5196C108.989 77.4003 108.989 77.3576 108.888 77.2979L108.007 76.7352L108.292 75.9933L110.138 76.7352L107.881 82.5591L107.293 82.3204L107.486 81.5871L107.495 81.57Z" fill="black"/>
<path d="M4.16282 52.1942C4.01175 52.4074 3.81033 52.8508 3.71801 53.695C3.52497 55.3492 4.14604 56.2446 5.27067 56.381C6.58834 56.5345 7.1003 55.426 7.64583 54.181C8.32564 52.6291 9.05582 50.8725 11.431 51.1624C13.8901 51.4609 14.5447 53.5244 14.2761 55.8268C14.1083 57.2934 13.5795 58.6663 13.2774 59.1353L10.6756 58.8198L10.8015 57.7454L12.2283 57.6089C12.4381 57.5833 12.5052 57.5407 12.6144 57.3275C12.7235 57.0973 12.9836 56.4919 13.0927 55.5539C13.2858 53.9082 12.7822 52.8593 11.3974 52.6888C10.0042 52.5183 9.45867 53.5841 8.9551 54.795C8.29207 56.364 7.66262 58.1973 5.27067 57.9074C3.00462 57.6345 2.24927 55.7159 2.50945 53.4818C2.66891 52.126 3.13891 51.0772 3.41587 50.557L6.10995 50.8811L5.88335 51.981L4.50693 52.0578C4.28032 52.0578 4.21318 52.1175 4.15443 52.1942H4.16282Z" fill="black"/>
<path d="M19.8406 35.5664L17.2136 35.123L15.107 39.1052L16.9283 41.0749L17.6668 39.992L18.4222 40.4098L16.6849 43.6927L15.9379 43.2834L16.1058 42.5842C16.1729 42.3284 16.1645 42.2346 16.0302 42.0811L8.69495 34.023L9.5678 32.3688L20.2686 34.0998C20.47 34.1339 20.5539 34.0401 20.6882 33.8866L21.1834 33.3323L21.9388 33.7502L20.0923 37.2292L19.337 36.8114L19.8322 35.575L19.8406 35.5664ZM16.0302 34.8757L10.214 33.8269L14.2594 38.2098L16.0302 34.8757Z" fill="black"/>
<path d="M30.1721 25.0355L28.7369 26.1696L20.3861 19.6037C20.2182 19.4673 20.1175 19.4673 19.9497 19.5611L19.1104 20.0216L18.7075 19.2286L21.8716 16.7386L22.4003 17.4293L21.3764 18.4441L28.5439 24.3022L25.5812 16.8154L26.8821 15.7921L33.3529 20.6867L29.5762 11.9976L28.334 12.7736L27.9312 11.9805L30.8854 9.66117L31.4142 10.3519L30.8435 10.9829C30.684 11.1449 30.6672 11.2216 30.7596 11.4604L34.9811 21.2751L33.4536 22.4774L27.3353 17.7789L30.1721 25.0525V25.0355Z" fill="black"/>
<path d="M48.9467 14.2829C49.1649 14.2146 49.1817 14.1464 49.1313 13.9077L47.1758 4.87749L44.7587 5.41469C44.5908 5.4488 44.5405 5.48291 44.5489 5.64492L44.5992 7.07747L43.5585 7.3077L42.9794 4.6302L52.3206 2.54959L52.8997 5.2271L51.859 5.45733L51.3135 4.13563C51.2463 3.98214 51.196 3.98214 51.0281 4.01625L48.611 4.55346L50.5665 13.5836C50.6169 13.8053 50.642 13.865 50.877 13.8309L52.6143 13.5751L52.799 14.4449L47.5535 15.6131L47.3689 14.7433L48.9467 14.2743V14.2829Z" fill="black"/>
<path d="M64.0537 7.89607C64.6496 4.51935 66.9828 2.32789 70.5665 2.98448C74.1251 3.64106 75.2749 6.46352 74.7126 9.6697C74.0411 13.4301 71.8255 15.5449 68.2333 14.8797C64.5909 14.2146 63.4411 11.4178 64.0621 7.89607H64.0537ZM73.1851 9.55032C73.7306 6.4891 72.5892 4.62167 70.3148 4.20385C68.0067 3.77749 66.0848 5.10772 65.5476 8.16894C64.9769 11.3751 66.2191 13.2425 68.5271 13.6689C70.8015 14.0867 72.6144 12.8332 73.1935 9.55032H73.1851Z" fill="black"/>
<path d="M85.1867 14.2487C87.1087 11.4178 90.1217 10.403 93.1179 12.5007C96.0973 14.5898 95.9966 17.651 94.1754 20.3285C92.0352 23.475 89.1565 24.4642 86.1519 22.358C83.1053 20.2262 83.1892 17.1906 85.1867 14.2402V14.2487ZM92.8409 19.5867C94.5782 17.0286 94.3013 14.8456 92.3961 13.5069C90.4658 12.1511 88.1745 12.5604 86.4372 15.1185C84.616 17.796 84.9853 20.0216 86.9156 21.3774C88.8208 22.7076 90.9777 22.3324 92.8409 19.5867Z" fill="black"/>
<path d="M99.3874 34.2874C99.5216 34.4664 99.5888 34.4664 99.7902 34.33L107.461 29.3502L106.135 27.2355C106.043 27.082 106.001 27.0564 105.85 27.1161L104.541 27.6533L103.97 26.7409L106.244 25.2657L111.389 33.4517L109.115 34.9269L108.544 34.0145L109.576 33.0339C109.694 32.923 109.677 32.8719 109.585 32.7184L108.259 30.6037L100.588 35.5835C100.403 35.7029 100.353 35.754 100.47 35.9672L101.309 37.5362L100.571 38.0137L97.6752 33.4176L98.4138 32.9401L99.3958 34.2874H99.3874Z" fill="black"/>
<path d="M107.117 55.8523C107.184 56.074 107.235 56.0996 107.47 56.057L111.498 55.4004L110.634 49.8919L106.614 50.54C106.362 50.5826 106.337 50.5997 106.337 50.8469L106.379 51.9384L105.531 52.0748L104.893 48.0074L105.741 47.871L106.009 48.8601C106.076 49.0818 106.127 49.1074 106.362 49.0648L115.216 47.6322C115.451 47.5981 115.493 47.5555 115.493 47.3253L115.443 46.302L116.29 46.1656L116.928 50.233L116.081 50.3694L115.787 49.3206C115.72 49.0818 115.686 49.0733 115.451 49.1159L111.767 49.7128L112.631 55.2213L116.316 54.6244C116.551 54.5903 116.593 54.5477 116.593 54.3175L116.542 53.2942L117.39 53.1578L118.028 57.2252L117.18 57.3616L116.886 56.3128C116.819 56.074 116.786 56.0655 116.542 56.1081L107.705 57.5407C107.453 57.5833 107.428 57.6004 107.428 57.8477L107.47 58.9391L106.622 59.0756L105.984 55.0082L106.832 54.8717L107.1 55.8609L107.117 55.8523Z" fill="black"/>
<path d="M44.3391 50.1733C43.0046 48.195 40.7302 47.095 38.3802 47.2912C35.661 47.6067 34.956 48.8772 32.5221 49.1245C30.0965 48.8772 29.3832 47.6067 26.6639 47.2912C24.3139 47.095 22.0395 48.195 20.705 50.1733C19.144 52.595 19.4881 56.202 21.7289 58.9733C22.2157 59.5616 22.5011 60.2864 22.543 61.0539C22.6773 64.567 23.332 74.4584 26.496 75.1235C28.93 75.6437 27.6459 63.8166 32.5221 63.9701C37.3983 63.8166 36.1142 75.6437 38.5481 75.1235C41.7038 74.4499 42.3668 64.567 42.5011 61.0539C42.543 60.2864 42.8284 59.5531 43.3152 58.9733C45.5561 56.2105 45.9002 52.595 44.3391 50.1733Z" fill="white"/>
<path d="M44.3391 50.1733C43.6341 48.5702 37.2892 45.7563 38.3802 47.2912C40.1091 49.7299 40.7554 54.3175 40.2182 59.3058C39.7566 63.5949 37.1213 73.0173 37.1213 73.0173C36.9115 74.2964 37.6668 75.4305 38.1536 75.3538C39.4965 75.1406 42.6354 70.9794 42.4927 61.0453C42.5179 60.2779 42.8032 59.536 43.3068 58.9647C45.2959 56.4833 45.6903 53.0555 44.3307 50.1648L44.3391 50.1733Z" fill="#D0CFCE"/>
<path d="M44.3391 50.1733C43.0046 48.195 40.7302 47.095 38.3802 47.2912C35.661 47.6067 34.956 48.8772 32.5221 49.1245C30.0965 48.8772 29.3832 47.6067 26.6639 47.2912C24.3139 47.095 22.0395 48.195 20.705 50.1733C19.144 52.595 19.4881 56.202 21.7289 58.9733C22.2157 59.5616 22.5011 60.2864 22.543 61.0539C22.6773 64.567 23.332 74.4584 26.496 75.1235C28.93 75.6437 27.6459 63.8166 32.5221 63.9701C37.3983 63.8166 36.1142 75.6437 38.5481 75.1235C41.7038 74.4499 42.3668 64.567 42.5011 61.0539C42.543 60.2864 42.8284 59.5531 43.3152 58.9733C45.5561 56.2105 45.9002 52.595 44.3391 50.1733Z" stroke="black" stroke-miterlimit="10"/>
<path d="M71.8926 50.071C70.5582 48.0927 68.2837 46.9927 65.9337 47.1888C63.2145 47.5043 62.5095 48.7749 60.0756 49.0222C57.6501 48.7749 56.9367 47.5043 54.2174 47.1888C51.8674 46.9927 49.593 48.0927 48.2586 50.071C46.6975 52.4927 47.0416 56.0996 49.2825 58.8709C49.7693 59.4593 50.0546 60.1841 50.0966 60.9515C50.2309 64.4647 50.8855 74.3561 54.0496 75.0212C56.4835 75.5414 55.1994 63.7143 60.0756 63.8678C64.9518 63.7143 63.6677 75.5414 66.1016 75.0212C69.2573 74.3476 69.9203 64.4647 70.0546 60.9515C70.0966 60.1841 70.3819 59.4508 70.8687 58.8709C73.1096 56.1082 73.4537 52.4927 71.8926 50.071Z" fill="white"/>
<path d="M71.8926 50.071C71.1876 48.4679 64.8427 45.654 65.9338 47.1888C67.6627 49.6276 68.3089 54.2151 67.7718 59.2035C67.3102 63.4926 64.6748 72.915 64.6748 72.915C64.465 74.1941 65.2204 75.3282 65.7072 75.2514C67.05 75.0383 70.1889 70.877 70.0462 60.943C70.0714 60.1756 70.3568 59.4337 70.8603 58.8624C72.8494 56.381 73.2439 52.9531 71.8842 50.0625L71.8926 50.071Z" fill="#D0CFCE"/>
<path d="M71.8926 50.071C70.5582 48.0927 68.2837 46.9927 65.9337 47.1888C63.2145 47.5043 62.5095 48.7749 60.0756 49.0222C57.6501 48.7749 56.9367 47.5043 54.2174 47.1888C51.8674 46.9927 49.593 48.0927 48.2586 50.071C46.6975 52.4927 47.0416 56.0996 49.2825 58.8709C49.7693 59.4593 50.0546 60.1841 50.0966 60.9515C50.2309 64.4647 50.8855 74.3561 54.0496 75.0212C56.4835 75.5414 55.1994 63.7143 60.0756 63.8678C64.9518 63.7143 63.6677 75.5414 66.1016 75.0212C69.2573 74.3476 69.9203 64.4647 70.0546 60.9515C70.0966 60.1841 70.3819 59.4508 70.8687 58.8709C73.1096 56.1082 73.4537 52.4927 71.8926 50.071Z" stroke="black" stroke-miterlimit="10"/>
<path d="M99.4545 50.5911C98.1201 48.6129 95.8456 47.5129 93.4956 47.709C90.7764 48.0245 90.0714 49.295 87.6375 49.5423C85.212 49.295 84.4986 48.0245 81.7793 47.709C79.4293 47.5129 77.1549 48.6129 75.8204 50.5911C74.2594 53.0128 74.6035 56.6198 76.8444 59.3911C77.3311 59.9795 77.6165 60.7042 77.6585 61.4717C77.7927 64.9848 78.4474 74.8762 81.6115 75.5414C84.0454 76.0615 82.7613 64.2345 87.6375 64.3879C92.5137 64.2345 91.2296 76.0615 93.6635 75.5414C96.8192 74.8677 97.4822 64.9848 97.6165 61.4717C97.6585 60.7042 97.9438 59.9709 98.4306 59.3911C100.671 56.6283 101.016 53.0128 99.4545 50.5911Z" fill="white"/>
<path d="M99.4545 50.5911C98.7495 48.988 92.4046 46.1741 93.4956 47.709C95.2246 50.1477 95.8708 54.7353 95.3337 59.7236C94.8721 64.0128 92.2367 73.4352 92.2367 73.4352C92.0269 74.7142 92.7823 75.8483 93.269 75.7716C94.6119 75.5584 97.7508 71.3972 97.6081 61.4632C97.6333 60.6957 97.9186 59.9539 98.4222 59.3826C100.411 56.9012 100.806 53.4733 99.4461 50.5826L99.4545 50.5911Z" fill="#D0CFCE"/>
<path d="M99.4545 50.5911C98.1201 48.6129 95.8456 47.5129 93.4956 47.709C90.7764 48.0245 90.0714 49.295 87.6375 49.5423C85.212 49.295 84.4986 48.0245 81.7793 47.709C79.4293 47.5129 77.1549 48.6129 75.8204 50.5911C74.2594 53.0128 74.6035 56.6198 76.8444 59.3911C77.3311 59.9794 77.6165 60.7042 77.6585 61.4717C77.7927 64.9848 78.4474 74.8762 81.6115 75.5414C84.0454 76.0615 82.7613 64.2345 87.6375 64.3879C92.5137 64.2345 91.2296 76.0615 93.6635 75.5414C96.8192 74.8677 97.4822 64.9848 97.6165 61.4717C97.6585 60.7042 97.9438 59.9709 98.4306 59.3911C100.671 56.6283 101.016 53.0128 99.4545 50.5911Z" stroke="black" stroke-miterlimit="10"/>
</svg>
