<svg width="276" height="74" viewBox="0 0 276 74" fill="none" xmlns="http://www.w3.org/2000/svg">
<path d="M20.9034 9.464C20.8074 9.08 20.7114 8.792 20.3274 8.6C19.7034 8.264 18.4074 7.736 15.2394 7.736C9.28744 7.736 6.50344 10.424 6.50344 14.552C6.50344 20.168 11.7354 21.08 16.6794 22.712C20.9034 24.104 24.6954 26.168 24.6954 32.072C24.6954 39.176 19.0794 41.576 12.5514 41.576C8.08744 41.576 4.29544 40.472 3.04744 39.848V33.128H4.67944L5.59144 37.352C5.73544 38.12 5.83144 38.264 6.26344 38.408C7.07944 38.696 9.33544 39.464 12.7914 39.464C18.4074 39.464 22.1034 37.16 22.1034 32.12C22.1034 26.168 16.7274 25.208 11.7354 23.576C7.51144 22.184 3.91144 20.216 3.91144 14.696C3.91144 8.216 9.09544 5.624 15.4314 5.624C19.4154 5.624 22.3914 6.584 23.6874 7.064V14.408L21.9114 14.168L20.9034 9.464ZM49.9584 39.32L53.9424 38.888L50.8224 29.336H36.3264L33.1584 38.888L37.0464 39.32V41H27.9264V39.272L29.9904 38.744C30.4704 38.6 30.9504 38.408 31.1424 37.832L41.8944 6.248H45.2544L56.2464 37.976C56.4384 38.552 56.7264 38.648 57.3024 38.792L59.5584 39.32V41H49.9584V39.32ZM37.0944 27.224H50.0064L43.5744 8.024L37.0944 27.224ZM79.5489 16.136L71.8689 41H69.4209L61.0209 9.32C60.8769 8.696 60.7329 8.504 60.0609 8.408L56.9889 7.928L57.4689 6.248H67.6449V7.928L63.2289 8.408L70.8129 37.928L78.2529 13.688H81.0369L88.4289 38.504L96.0129 8.408L91.5009 7.928L91.9809 6.248H101.917V7.928L99.2769 8.36C98.6049 8.456 98.5089 8.6 98.3169 9.32L89.9169 41H87.0849L79.5489 16.136ZM111.17 39.272L116.114 38.936C116.786 38.888 116.882 38.696 116.882 37.976V8.216H107.81C107.282 8.216 107.138 8.264 107.042 8.744L106.274 13.016H104.45V6.248H131.714V13.016H129.938L129.17 8.744C129.074 8.264 128.93 8.216 128.402 8.216H119.186V37.976C119.186 38.648 119.234 38.84 119.954 38.888L125.234 39.272V41H111.17V39.272ZM150.979 41.576C140.179 41.576 135.187 33.944 135.187 23.72C135.187 13.16 140.947 5.624 151.651 5.624C162.211 5.624 167.203 13.16 167.203 22.808C167.203 34.136 161.635 41.576 150.979 41.576ZM151.123 39.512C159.283 39.512 164.803 33.992 164.803 23.288C164.803 13.352 159.619 7.688 151.555 7.688C143.395 7.688 137.683 13.4 137.683 23.72C137.683 33.704 142.771 39.512 151.123 39.512ZM188.76 41.576C177.96 41.576 172.968 33.944 172.968 23.72C172.968 13.16 178.728 5.624 189.432 5.624C199.992 5.624 204.984 13.16 204.984 22.808C204.984 34.136 199.416 41.576 188.76 41.576ZM188.904 39.512C197.064 39.512 202.584 33.992 202.584 23.288C202.584 13.352 197.4 7.688 189.336 7.688C181.176 7.688 175.464 13.4 175.464 23.72C175.464 33.704 180.552 39.512 188.904 39.512ZM215.561 39.272L220.505 38.936C221.177 38.888 221.273 38.696 221.273 37.976V8.216H212.201C211.673 8.216 211.529 8.264 211.433 8.744L210.665 13.016H208.841V6.248H236.105V13.016H234.329L233.561 8.744C233.465 8.264 233.321 8.216 232.793 8.216H223.577V37.976C223.577 38.648 223.625 38.84 224.345 38.888L229.625 39.272V41H215.561V39.272ZM262.403 39.32L265.427 38.984C266.099 38.888 266.195 38.744 266.195 38.024V24.008H247.331V37.976C247.331 38.744 247.379 38.84 248.099 38.936L251.315 39.32V41H241.235V39.32L244.259 38.984C244.931 38.888 245.027 38.744 245.027 38.024V9.224C245.027 8.504 244.931 8.36 244.259 8.264L241.235 7.928V6.248H251.315V7.928L248.099 8.312C247.379 8.408 247.331 8.504 247.331 9.224V21.992H266.195V9.224C266.195 8.504 266.099 8.36 265.427 8.264L262.403 7.928V6.248H272.483V7.928L269.267 8.312C268.547 8.408 268.499 8.504 268.499 9.224V37.976C268.499 38.744 268.547 38.84 269.267 38.936L272.483 39.32V41H262.403V39.32Z" fill="black"/>
<path d="M48.71 69.142L50.348 68.96C50.712 68.908 50.764 68.83 50.764 68.44V52.762C50.764 52.372 50.712 52.294 50.348 52.242L48.71 52.06V51.176H56.016C62.542 51.176 65.35 54.686 65.35 60.302C65.35 66.074 62.308 70 55.574 70H48.71V69.142ZM55.834 68.908C61.06 68.908 64.024 65.918 64.024 60.744C64.024 54.166 60.878 52.242 55.99 52.242H52.012V68.908H55.834ZM68.9209 69.142L70.5589 68.96C70.9229 68.908 70.9749 68.83 70.9749 68.44V52.762C70.9749 52.372 70.9229 52.294 70.5589 52.242L68.9209 52.06V51.176H81.4269V54.738L80.4129 54.686L80.0489 52.58C79.9969 52.32 79.8929 52.242 79.6069 52.242H72.2229V59.938H79.7629V61.004H72.2229V68.908H80.1789C80.4649 68.908 80.5429 68.882 80.5949 68.622L81.0109 66.334H81.9989V70H68.9209V69.142ZM88.803 52.476V68.362C88.803 68.778 88.829 68.83 89.219 68.882L90.961 69.09V70H85.501V69.09L87.139 68.908C87.503 68.856 87.555 68.778 87.555 68.388V52.814C87.555 52.424 87.503 52.346 87.139 52.294L85.501 52.112V51.176H89.557L99.853 68.388V52.788C99.853 52.398 99.801 52.32 99.437 52.268L97.799 52.086V51.176H103.259V52.086L101.517 52.294C101.127 52.346 101.101 52.398 101.101 52.788V70H99.411L88.803 52.476ZM109.502 69.064L112.18 68.882C112.544 68.856 112.596 68.752 112.596 68.362V52.242H107.682C107.396 52.242 107.318 52.268 107.266 52.528L106.85 54.842H105.862V51.176H120.63V54.842H119.668L119.252 52.528C119.2 52.268 119.122 52.242 118.836 52.242H113.844V68.362C113.844 68.726 113.87 68.83 114.26 68.856L117.12 69.064V70H109.502V69.064ZM131.545 69.09L133.703 68.856L132.013 63.682H124.161L122.445 68.856L124.551 69.09V70H119.611V69.064L120.729 68.778C120.989 68.7 121.249 68.596 121.353 68.284L127.177 51.176H128.997L134.951 68.362C135.055 68.674 135.211 68.726 135.523 68.804L136.745 69.09V70H131.545V69.09ZM124.577 62.538H131.571L128.087 52.138L124.577 62.538ZM139.05 69.142L140.688 68.96C141.052 68.908 141.104 68.83 141.104 68.44V52.814C141.104 52.424 141.052 52.346 140.688 52.294L139.05 52.112V51.176H144.926V52.112L142.768 52.32C142.378 52.346 142.352 52.45 142.352 52.814V68.908H150.308C150.594 68.908 150.672 68.882 150.724 68.622L151.14 66.412H152.128V70H139.05V69.142ZM175.542 68.986C174.242 69.922 171.876 70.312 169.484 70.312C163.244 70.312 160.774 66.126 160.774 60.302C160.774 54.946 163.79 50.838 169.874 50.838C172.266 50.838 174.294 51.384 175.49 52.19V55.674L174.502 55.622L174.086 53.204C174.06 53.022 174.034 52.866 173.722 52.736C172.682 52.32 171.226 52.008 169.744 52.008C165.116 52.008 162.1 55.05 162.1 60.354C162.1 66.1 164.96 69.142 169.562 69.142C170.992 69.142 172.76 69.012 173.93 68.44C174.086 68.362 174.216 68.232 174.242 68.024L174.658 65.736H175.542V68.986ZM189.106 69.09L191.264 68.856L189.574 63.682H181.722L180.006 68.856L182.112 69.09V70H177.172V69.064L178.29 68.778C178.55 68.7 178.81 68.596 178.914 68.284L184.738 51.176H186.558L192.512 68.362C192.616 68.674 192.772 68.726 193.084 68.804L194.306 69.09V70H189.106V69.09ZM182.138 62.538H189.132L185.648 52.138L182.138 62.538ZM205.944 69.038L208.232 68.778L205.918 63.292C205.398 62.07 204.774 61.654 203.734 61.654H199.886V68.362C199.886 68.778 199.912 68.83 200.302 68.882L202.122 69.09V70H196.61V69.09L198.248 68.908C198.612 68.856 198.664 68.778 198.664 68.388V52.762C198.664 52.372 198.612 52.294 198.248 52.242L196.61 52.06V51.176H203.916C208.596 51.176 209.662 53.75 209.662 56.038C209.662 58.924 207.998 60.666 205.684 61.238C206.568 61.654 206.854 62.304 207.374 63.552L209.402 68.362C209.454 68.466 209.61 68.674 209.896 68.726L211.768 69.064V70H205.944V69.038ZM203.084 60.588C206.022 60.588 208.336 59.522 208.336 56.168C208.336 53.022 206.23 52.242 203.526 52.242H199.886V60.588H203.084ZM214.714 69.142L216.352 68.96C216.716 68.908 216.768 68.83 216.768 68.44V52.762C216.768 52.372 216.716 52.294 216.352 52.242L214.714 52.06V51.176H227.22V54.738L226.206 54.686L225.842 52.58C225.79 52.32 225.686 52.242 225.4 52.242H218.016V59.938H225.556V61.004H218.016V68.908H225.972C226.258 68.908 226.336 68.882 226.388 68.622L226.804 66.334H227.792V70H214.714V69.142Z" fill="black"/>
</svg>
